<svg width="233" height="69" viewBox="0 0 233 69" fill="none" xmlns="http://www.w3.org/2000/svg">
<path d="M54.6702 53.6049H52.4297C51.4369 53.5585 50.3171 53.4772 49.1327 53.3557C48.239 53.2629 47.3046 53.1414 46.3703 52.9965C43.3578 52.4054 40.5658 51.2064 38.1341 49.5204C38.1341 49.5204 38.1398 49.5204 38.1513 49.5204C38.929 49.6998 53.6195 52.985 57.3808 49.6653C58.1062 51.5076 56.7536 53.6049 54.6702 53.6049Z" fill="#01B46D"/>
<path d="M57.3804 49.6602C53.6191 52.9799 38.9286 49.6947 38.1509 49.5153C38.7255 49.4747 53.4797 48.368 54.4025 44.44L57.1887 49.2547C57.2352 49.3356 57.2817 49.4226 57.3162 49.5096C57.3397 49.5617 57.357 49.6081 57.3804 49.6602Z" fill="#3FE360"/>
<path d="M54.3975 44.4396C53.4747 48.3676 38.7263 49.4743 38.146 49.5149C38.1345 49.5149 38.1287 49.5149 38.1287 49.5149C38.1287 49.5149 38.1345 49.5149 38.1402 49.5149C38.5523 49.4049 51.0717 45.981 51.0717 38.7218V38.6984L54.3975 44.4396Z" fill="#74F93C"/>
<path d="M51.0771 38.6983V38.7217C51.0771 46.0967 38.1341 49.5149 38.1341 49.5149C38.2266 49.457 38.3138 49.3991 38.4067 49.3408C41.5759 47.2957 44.356 44.7063 46.6195 41.6937C47.8385 40.0714 48.9065 38.3334 49.8063 36.4911L51.0771 38.6983Z" fill="#ACFF01"/>
<path d="M49.591 36.126C40.3279 48.0316 16.7975 49.3698 11.8119 49.5147C10.9877 51.3163 12.2121 53.4136 14.1914 53.5872C16.4669 54.1089 18.8291 54.3811 21.2609 54.3811C26.4789 54.3811 31.4008 53.118 35.7424 50.882C36.2881 50.6037 36.8219 50.3024 37.35 49.9954C37.6115 49.839 37.8727 49.6826 38.1281 49.5204C38.2206 49.4626 38.3078 49.4047 38.4007 49.3464C41.5699 47.3013 44.3499 44.7119 46.6135 41.6993C47.8324 40.077 48.9005 38.339 49.8003 36.4967L49.591 36.126Z" fill="#01B46D"/>
<path d="M49.5914 36.1258C40.3283 48.0314 16.7979 49.3696 11.8123 49.5145C11.8526 49.4275 11.8933 49.3405 11.9456 49.2538L15.6892 42.7824C20.6695 42.9909 43.8046 43.4659 48.8079 34.77L49.5914 36.1258Z" fill="#01C36D"/>
<path d="M48.8073 34.7706C43.8101 43.4665 20.6688 42.9916 15.6886 42.783L20.0302 35.2747C24.0991 36.8214 39.2016 41.7055 47.4666 32.4591L48.8073 34.7706Z" fill="#3FE360"/>
<path d="M47.4668 32.4641C39.2018 41.7106 24.0994 36.8269 20.0304 35.2797L24.3486 27.812C26.9666 29.6371 36.9034 35.7489 46.7994 31.2996L47.3451 32.2441L47.4668 32.4641Z" fill="#74F93C"/>
<path d="M46.7997 31.3003C36.9036 35.7497 26.9727 29.6378 24.3493 27.8128L28.2146 21.127C30.0661 23.3347 36.8107 30.5011 45.9582 29.8463L46.7997 31.3003Z" fill="#B0FF01"/>
<path d="M45.958 29.846C36.8108 30.5008 30.0663 23.3343 28.2148 21.1267L32.0514 14.4935C32.4228 13.8445 32.9858 13.4156 33.6125 13.2013C34.8491 12.7785 36.335 13.2071 37.0777 14.4935L39.5967 18.8444L45.5808 29.197L45.958 29.846Z" fill="#DCFF00"/>
<path d="M105.635 38.5871C105.635 41.0111 104.76 42.9209 103.009 44.3166C101.271 45.7122 98.847 46.41 95.7375 46.41C92.8728 46.41 90.3386 45.8713 88.135 44.794V39.5053C89.9468 40.3133 91.4771 40.8826 92.7259 41.2131C93.9868 41.5437 95.1376 41.7089 96.1782 41.7089C97.4269 41.7089 98.3818 41.4702 99.0429 40.9928C99.7162 40.5153 100.053 39.8053 100.053 38.8626C100.053 38.3362 99.906 37.871 99.6122 37.467C99.3183 37.0507 98.8837 36.6529 98.3084 36.2733C97.7452 35.8938 96.5883 35.2878 94.8377 34.4554C93.1972 33.6841 91.9668 32.9434 91.1466 32.2334C90.3264 31.5233 89.6714 30.697 89.1817 29.7543C88.692 28.8117 88.4472 27.7098 88.4472 26.4489C88.4472 24.0739 89.249 22.2069 90.8528 20.848C92.4688 19.4891 94.6969 18.8097 97.5371 18.8097C98.9327 18.8097 100.261 18.9749 101.522 19.3055C102.795 19.636 104.123 20.1012 105.507 20.7011L103.67 25.1267C102.238 24.5391 101.051 24.129 100.108 23.8964C99.1776 23.6638 98.2594 23.5475 97.3535 23.5475C96.2761 23.5475 95.4498 23.7984 94.8744 24.3004C94.299 24.8023 94.0113 25.4573 94.0113 26.2652C94.0113 26.7672 94.1276 27.2079 94.3602 27.5874C94.5928 27.9547 94.9601 28.3158 95.462 28.6709C95.9762 29.0136 97.1821 29.638 99.0796 30.5439C101.589 31.7437 103.309 32.9496 104.24 34.1615C105.17 35.3613 105.635 36.8365 105.635 38.5871ZM118.898 41.9477C119.878 41.9477 121.053 41.7334 122.424 41.3049V45.4735C121.028 46.0978 119.314 46.41 117.282 46.41C115.042 46.41 113.408 45.8468 112.379 44.7206C111.363 43.582 110.855 41.8803 110.855 39.6155V29.7176H108.174V27.3487L111.259 25.4756L112.875 21.1418H116.456V25.5123H122.204V29.7176H116.456V39.6155C116.456 40.4113 116.676 40.9989 117.117 41.3784C117.57 41.7579 118.164 41.9477 118.898 41.9477ZM138.239 25.1267C138.998 25.1267 139.629 25.1818 140.131 25.292L139.708 30.5439C139.256 30.4215 138.705 30.3603 138.056 30.3603C136.268 30.3603 134.873 30.8194 133.869 31.7376C132.877 32.6557 132.381 33.9412 132.381 35.5939V46.0427H126.781V25.5123H131.023L131.849 28.9647H132.124C132.761 27.8139 133.618 26.8896 134.695 26.1918C135.785 25.4817 136.966 25.1267 138.239 25.1267ZM157.085 46.0427L156.001 43.2515H155.854C154.912 44.439 153.938 45.2653 152.935 45.7305C151.943 46.1835 150.645 46.41 149.042 46.41C147.071 46.41 145.516 45.8468 144.377 44.7206C143.251 43.5943 142.688 41.9905 142.688 39.9093C142.688 37.7302 143.447 36.1264 144.965 35.0981C146.495 34.0575 148.797 33.4821 151.87 33.3719L155.432 33.2617V32.3619C155.432 30.2807 154.367 29.2401 152.237 29.2401C150.596 29.2401 148.668 29.7359 146.452 30.7276L144.598 26.9447C146.96 25.7082 149.58 25.09 152.457 25.09C155.212 25.09 157.323 25.6899 158.793 26.8896C160.262 28.0894 160.996 29.9135 160.996 32.3619V46.0427H157.085ZM155.432 36.5304L153.265 36.6039C151.637 36.6529 150.425 36.9467 149.629 37.4853C148.833 38.024 148.436 38.8442 148.436 39.946C148.436 41.5253 149.341 42.3149 151.153 42.3149C152.451 42.3149 153.485 41.9415 154.257 41.1948C155.04 40.448 155.432 39.4564 155.432 38.2199V36.5304ZM175.618 41.9477C176.597 41.9477 177.773 41.7334 179.144 41.3049V45.4735C177.748 46.0978 176.034 46.41 174.002 46.41C171.762 46.41 170.127 45.8468 169.099 44.7206C168.083 43.582 167.575 41.8803 167.575 39.6155V29.7176H164.894V27.3487L167.979 25.4756L169.595 21.1418H173.176V25.5123H178.923V29.7176H173.176V39.6155C173.176 40.4113 173.396 40.9989 173.837 41.3784C174.29 41.7579 174.883 41.9477 175.618 41.9477ZM197.787 46.0427H181.572V42.7373L191.084 29.791H182.141V25.5123H197.457V29.1483L188.201 41.764H197.787V46.0427ZM199.114 25.5123H205.247L209.122 37.063C209.452 38.0668 209.679 39.2544 209.801 40.6255H209.911C210.046 39.3645 210.309 38.177 210.701 37.063L214.502 25.5123H220.507L211.821 48.6687C211.025 50.8111 209.887 52.4149 208.406 53.4799C206.936 54.545 205.216 55.0776 203.245 55.0776C202.278 55.0776 201.329 54.9735 200.399 54.7654V50.3214C201.072 50.4806 201.807 50.5601 202.603 50.5601C203.594 50.5601 204.457 50.2541 205.192 49.642C205.939 49.0421 206.52 48.13 206.936 46.9058L207.267 45.8958L199.114 25.5123Z" fill="white"/>
</svg>
